<svg width="24" height="24" viewBox="0 0 24 24" fill="none" xmlns="http://www.w3.org/2000/svg">
<path d="M4 19V9C4 7.89543 4.89543 7 6 7H7.17157C7.70201 7 8.21071 6.78929 8.58579 6.41421L10.4142 4.58579C10.7893 4.21071 11.298 4 11.8284 4H12.1716C12.702 4 13.2107 4.21071 13.5858 4.58579L15.4142 6.41421C15.7893 6.78929 16.298 7 16.8284 7H18C19.1046 7 20 7.89543 20 9V19C20 20.1046 19.1046 21 18 21H6C4.89543 21 4 20.1046 4 19Z" stroke="currentColor" stroke-width="2" stroke-linecap="round" stroke-linejoin="round"/>
<path d="M12 17C14.2091 17 16 15.2091 16 13C16 10.7909 14.2091 9 12 9C9.79086 9 8 10.7909 8 13C8 15.2091 9.79086 17 12 17Z" stroke="currentColor" stroke-width="2" stroke-linecap="round" stroke-linejoin="round"/>
</svg>
