<svg width="1512" height="1082" viewBox="0 0 1512 1082" fill="none" xmlns="http://www.w3.org/2000/svg">
<g clip-path="url(#clip0_106_174)">
<rect width="1512" height="1082" fill="#FFFBE9"/>
<g opacity="0.8">
<g filter="url(#filter0_f_106_174)">
<path d="M937.869 17.9075L1393.27 16.0439C1416.37 31.0757 1273.91 91.6073 1455.97 151.703C1574.52 190.836 1500.27 288.108 1277.52 335.441C1038.2 386.295 474.731 382.044 454.838 390.975L454.421 391.716C454.164 391.459 454.308 391.211 454.838 390.975L665.62 16.0439L937.869 17.9075Z" fill="url(#paint0_linear_106_174)" fill-opacity="0.5"/>
</g>
<g filter="url(#filter1_f_106_174)">
<path d="M543.01 9.08884L1054.25 6.35742C1080.19 28.3904 1208.12 131.809 1054.25 228.417C881.986 336.58 826.417 246.717 481.884 449.932C321.332 544.628 22.3614 542.912 1.18876 554.887L0.278275 557C-0.297725 556.244 0.0274745 555.544 1.18876 554.887L237.377 6.35742L543.01 9.08884Z" fill="url(#paint1_linear_106_174)" fill-opacity="0.5"/>
</g>
<g filter="url(#filter2_f_106_174)">
<path d="M791.593 187.387C910.734 114.245 787.732 39.0944 711.339 10.662L386.184 0L349.78 484.593C473.334 521.201 697.274 569.572 604.609 470.202C488.778 345.988 642.668 278.815 791.593 187.387Z" fill="url(#paint2_linear_106_174)" fill-opacity="0.5"/>
</g>
</g>
</g>
<defs>
<filter id="filter0_f_106_174" x="206.822" y="-231.431" width="1552.65" height="870.623" filterUnits="userSpaceOnUse" color-interpolation-filters="sRGB">
<feFlood flood-opacity="0" result="BackgroundImageFix"/>
<feBlend mode="normal" in="SourceGraphic" in2="BackgroundImageFix" result="shape"/>
<feGaussianBlur stdDeviation="123.738" result="effect1_foregroundBlur_106_174"/>
</filter>
<filter id="filter1_f_106_174" x="-247.475" y="-241.118" width="1623.72" height="1045.59" filterUnits="userSpaceOnUse" color-interpolation-filters="sRGB">
<feFlood flood-opacity="0" result="BackgroundImageFix"/>
<feBlend mode="normal" in="SourceGraphic" in2="BackgroundImageFix" result="shape"/>
<feGaussianBlur stdDeviation="123.738" result="effect1_foregroundBlur_106_174"/>
</filter>
<filter id="filter2_f_106_174" x="102.305" y="-247.475" width="986.409" height="1024.1" filterUnits="userSpaceOnUse" color-interpolation-filters="sRGB">
<feFlood flood-opacity="0" result="BackgroundImageFix"/>
<feBlend mode="normal" in="SourceGraphic" in2="BackgroundImageFix" result="shape"/>
<feGaussianBlur stdDeviation="123.738" result="effect1_foregroundBlur_106_174"/>
</filter>
<linearGradient id="paint0_linear_106_174" x1="1323.97" y1="14.1804" x2="1311.17" y2="313.579" gradientUnits="userSpaceOnUse">
<stop stop-color="#F8B8BC"/>
<stop offset="0.338" stop-color="#FF7272"/>
<stop offset="1" stop-color="#BEE4BE"/>
</linearGradient>
<linearGradient id="paint1_linear_106_174" x1="976.455" y1="3.626" x2="952.002" y2="441.907" gradientUnits="userSpaceOnUse">
<stop stop-color="#FEF1C3"/>
<stop offset="0.338" stop-color="#FDDA23"/>
<stop offset="1" stop-color="#FDDA23"/>
</linearGradient>
<linearGradient id="paint2_linear_106_174" x1="348.953" y1="172.993" x2="641.779" y2="468.463" gradientUnits="userSpaceOnUse">
<stop stop-color="#00CAE5"/>
<stop offset="1" stop-color="#D068BB"/>
</linearGradient>
<clipPath id="clip0_106_174">
<rect width="1512" height="1082" fill="white"/>
</clipPath>
</defs>
</svg>
