<svg width="199" height="82" viewBox="0 0 199 82" fill="none" xmlns="http://www.w3.org/2000/svg">
<path d="M63.0634 13.0005C63.0634 13.5894 62.7776 14.1542 62.2689 14.5706C61.7601 14.987 61.0701 15.2209 60.3506 15.2209L60.3506 20.1202C60.7168 20.1066 61.0826 20.154 61.4258 20.2593C61.769 20.3647 62.0826 20.5259 62.3476 20.7332C62.6126 20.9405 62.8236 21.1896 62.9677 21.4655C63.1118 21.7413 63.1861 22.0383 63.1861 22.3383C63.1861 22.6383 63.1118 22.9352 62.9677 23.2111C62.8236 23.487 62.6126 23.7361 62.3476 23.9434C62.0826 24.1507 61.769 24.3119 61.4258 24.4173C61.0826 24.5226 60.7168 24.5699 60.3506 24.5564V29.4511C61.0701 29.4511 61.7601 29.6851 62.2689 30.1015C62.7776 30.5179 63.0634 31.0826 63.0634 31.6715C63.0634 32.2604 62.7776 32.8251 62.2689 33.2415C61.7601 33.6579 61.0701 33.8919 60.3506 33.8919V38.7866C60.7068 38.7866 61.0596 38.844 61.3887 38.9556C61.7179 39.0672 62.0169 39.2308 62.2689 39.4369C62.5208 39.6431 62.7206 39.8879 62.8569 40.1573C62.9932 40.4267 63.0634 40.7154 63.0634 41.007C63.0634 41.2986 62.9932 41.5873 62.8569 41.8567C62.7206 42.1261 62.5208 42.3708 62.2689 42.577C62.0169 42.7832 61.7179 42.9467 61.3887 43.0583C61.0596 43.1699 60.7068 43.2273 60.3506 43.2273L60.3506 48.1221C61.0701 48.1221 61.7601 48.356 62.2689 48.7724C62.7776 49.1888 63.0634 49.7536 63.0634 50.3424C63.0634 50.9313 62.7776 51.4961 62.2689 51.9125C61.7601 52.3289 61.0701 52.5628 60.3506 52.5628V57.4576C61.0701 57.4576 61.7601 57.6915 62.2689 58.1079C62.7776 58.5243 63.0634 59.089 63.0634 59.6779C63.0634 60.2668 62.7776 60.8316 62.2689 61.2479C61.7601 61.6643 61.0701 61.8983 60.3506 61.8983V66.793C61.0701 66.793 61.7601 67.027 62.2689 67.4434C62.7776 67.8598 63.0634 68.4245 63.0634 69.0134C63.0634 69.6023 62.7776 70.167 62.2689 70.5834C61.7601 70.9998 61.0701 71.2337 60.3506 71.2337V74.9616C62.6312 74.9616 64.8183 75.7031 66.431 77.0229C68.0436 78.3428 68.9495 80.1329 68.9495 81.9995L189.928 81.9995C189.928 80.1329 190.834 78.3428 192.447 77.0229C194.06 75.7031 196.247 74.9616 198.527 74.9616V71.2337C197.808 71.2337 197.118 70.9998 196.609 70.5834C196.1 70.167 195.815 69.6023 195.815 69.0134C195.815 68.4245 196.1 67.8598 196.609 67.4434C197.118 67.027 197.808 66.793 198.527 66.793V61.8983C197.808 61.8983 197.118 61.6643 196.609 61.2479C196.1 60.8316 195.815 60.2668 195.815 59.6779C195.815 59.089 196.1 58.5243 196.609 58.1079C197.118 57.6915 197.808 57.4576 198.527 57.4576V52.5628C197.808 52.5628 197.118 52.3289 196.609 51.9125C196.1 51.4961 195.815 50.9313 195.815 50.3424C195.815 49.7536 196.1 49.1888 196.609 48.7724C197.118 48.356 197.808 48.1221 198.527 48.1221V43.2273C197.808 43.2273 197.118 42.9934 196.609 42.577C196.1 42.1606 195.815 41.5958 195.815 41.007C195.815 40.4181 196.1 39.8533 196.609 39.4369C197.118 39.0205 197.808 38.7866 198.527 38.7866V33.8919C197.808 33.8919 197.118 33.6579 196.609 33.2415C196.1 32.8251 195.815 32.2604 195.815 31.6715C195.815 31.0826 196.1 30.5179 196.609 30.1015C197.118 29.6851 197.808 29.4511 198.527 29.4511V24.5564C197.83 24.5305 197.171 24.2856 196.689 23.8724C196.206 23.4593 195.937 22.9098 195.937 22.3383C195.937 21.7668 196.206 21.2173 196.689 20.8042C197.171 20.391 197.83 20.146 198.527 20.1202V15.2209C197.83 15.1951 197.171 14.9501 196.689 14.5369C196.206 14.1238 195.937 13.5743 195.937 13.0028C195.937 12.4313 196.206 11.8818 196.689 11.4687C197.171 11.0555 197.83 10.8106 198.527 10.7847V7.05691C196.246 7.0557 194.059 6.31319 192.447 4.99261C190.834 3.67202 189.928 1.88143 189.928 0.0144348L68.9495 0.0144348C68.9495 1.88143 68.0438 3.67202 66.4313 4.99261C64.8188 6.31319 62.6317 7.0557 60.3506 7.05691V10.7893C60.7061 10.7887 61.0583 10.8454 61.387 10.9562C61.7158 11.067 62.0146 11.2297 62.2665 11.4351C62.5185 11.6404 62.7185 11.8843 62.8552 12.1529C62.9919 12.4215 63.0627 12.7096 63.0634 13.0005Z" fill="#1C1C1C"/>
<path d="M194.134 71.992C192.333 72.5249 190.698 73.3755 189.344 74.4835C187.991 75.5915 186.951 76.9297 186.3 78.4033L72.5723 78.4033C71.9203 76.9294 70.8801 75.591 69.5254 74.483C68.1707 73.375 66.5346 72.5246 64.7334 71.992L64.7334 10.0264C66.5348 9.49281 68.1708 8.64146 69.5255 7.53272C70.8802 6.42397 71.9203 5.08496 72.5723 3.61055L186.3 3.61055C186.951 5.08481 187.99 6.42382 189.344 7.53261C190.698 8.6414 192.333 9.4928 194.134 10.0264L194.134 71.992Z" fill="#1C1C1C"/>
<path d="M193.035 71.3726C189.66 72.5404 186.975 74.7395 185.551 77.5024L73.3322 77.5024C71.9061 74.739 69.2192 72.5398 65.8428 71.3726L65.8428 10.6376C69.2202 9.4716 71.9076 7.27205 73.3322 4.50775L185.551 4.50775C186.975 7.27065 189.66 9.46982 193.035 10.6376V71.3726Z" fill="white"/>
<path d="M47.8656 -0.000213623L8.59895 -0.000213623C8.59895 1.86678 7.69317 3.65737 6.08071 4.97796C4.46825 6.29855 2.28109 7.04105 0 7.04226L0 10.7746C0.69754 10.8005 1.35605 11.0454 1.8385 11.4586C2.32095 11.8717 2.59018 12.4212 2.59018 12.9927C2.59018 13.5642 2.32095 14.1137 1.8385 14.5268C1.35605 14.94 0.69754 15.185 0 15.2108L0 20.1056C0.69754 20.1314 1.35605 20.3764 1.8385 20.7895C2.32095 21.2027 2.59018 21.7522 2.59018 22.3236C2.59018 22.8951 2.32095 23.4446 1.8385 23.8578C1.35605 24.2709 0.69754 24.5159 0 24.5417L0 29.4365C0.719487 29.4365 1.40951 29.6704 1.91826 30.0868C2.42702 30.5032 2.71283 31.068 2.71283 31.6569C2.71283 32.2457 2.42702 32.8105 1.91826 33.2269C1.40951 33.6433 0.719487 33.8772 0 33.8772L0 38.772C0.719487 38.772 1.40951 39.0059 1.91826 39.4223C2.42702 39.8387 2.71283 40.4035 2.71283 40.9923C2.71283 41.5812 2.42702 42.146 1.91826 42.5624C1.40951 42.9787 0.719487 43.2127 0 43.2127L0 48.1074C0.719487 48.1074 1.40951 48.3414 1.91826 48.7578C2.42702 49.1742 2.71283 49.7389 2.71283 50.3278C2.71283 50.9167 2.42702 51.4814 1.91826 51.8978C1.40951 52.3142 0.719487 52.5482 0 52.5482L0 57.4429C0.719487 57.4429 1.40951 57.6768 1.91826 58.0932C2.42702 58.5096 2.71283 59.0744 2.71283 59.6633C2.71283 60.2521 2.42702 60.8169 1.91826 61.2333C1.40951 61.6497 0.719487 61.8836 0 61.8836L0 66.7784C0.719487 66.7784 1.40951 67.0123 1.91826 67.4287C2.42702 67.8451 2.71283 68.4099 2.71283 68.9987C2.71283 69.5876 2.42702 70.1524 1.91826 70.5688C1.40951 70.9852 0.719487 71.2191 0 71.2191L0 74.9469C2.28058 74.9469 4.46776 75.6884 6.08038 77.0083C7.69299 78.3282 8.59895 80.1183 8.59895 81.9849L47.8656 81.9849C47.8656 80.1183 48.7716 78.3282 50.3842 77.0083C51.9968 75.6884 54.184 74.9469 56.4646 74.9469V71.2191C55.7451 71.2191 55.0551 70.9852 54.5463 70.5688C54.0376 70.1524 53.7517 69.5876 53.7517 68.9987C53.7517 68.4099 54.0376 67.8451 54.5463 67.4287C55.0551 67.0123 55.7451 66.7784 56.4646 66.7784V61.8836C55.7451 61.8836 55.0551 61.6497 54.5463 61.2333C54.0376 60.8169 53.7517 60.2521 53.7517 59.6633C53.7517 59.0744 54.0376 58.5096 54.5463 58.0932C55.0551 57.6768 55.7451 57.4429 56.4646 57.4429V52.5482C55.7451 52.5482 55.0551 52.3142 54.5463 51.8978C54.0376 51.4814 53.7517 50.9167 53.7517 50.3278C53.7517 49.7389 54.0376 49.1742 54.5463 48.7578C55.0551 48.3414 55.7451 48.1074 56.4646 48.1074V43.2127C56.1083 43.2127 55.7556 43.1552 55.4264 43.0437C55.0973 42.9321 54.7982 42.7685 54.5463 42.5624C54.2944 42.3562 54.0946 42.1114 53.9583 41.842C53.8219 41.5726 53.7517 41.2839 53.7517 40.9923C53.7517 40.7007 53.8219 40.412 53.9583 40.1426C54.0946 39.8732 54.2944 39.6285 54.5463 39.4223C54.7982 39.2161 55.0973 39.0526 55.4264 38.941C55.7556 38.8294 56.1083 38.772 56.4646 38.772V33.8772C55.7451 33.8772 55.0551 33.6433 54.5463 33.2269C54.0376 32.8105 53.7517 32.2457 53.7517 31.6569C53.7517 31.068 54.0376 30.5032 54.5463 30.0868C55.0551 29.6704 55.7451 29.4365 56.4646 29.4365V24.5417C56.0984 24.5553 55.7326 24.508 55.3894 24.4026C55.0461 24.2973 54.7325 24.1361 54.4675 23.9288C54.2025 23.7215 53.9916 23.4724 53.8475 23.1965C53.7034 22.9206 53.6291 22.6237 53.6291 22.3236C53.6291 22.0236 53.7034 21.7267 53.8475 21.4508C53.9916 21.1749 54.2025 20.9258 54.4675 20.7185C54.7325 20.5112 55.0461 20.35 55.3894 20.2447C55.7326 20.1393 56.0984 20.092 56.4646 20.1056V15.2063C56.0984 15.2198 55.7326 15.1725 55.3894 15.0671C55.0461 14.9618 54.7325 14.8006 54.4675 14.5933C54.2025 14.386 53.9916 14.1369 53.8475 13.861C53.7034 13.5851 53.6291 13.2882 53.6291 12.9882C53.6291 12.6881 53.7034 12.3912 53.8475 12.1153C53.9916 11.8395 54.2025 11.5904 54.4675 11.383C54.7325 11.1757 55.0461 11.0145 55.3894 10.9092C55.7326 10.8038 56.0984 10.7565 56.4646 10.7701L56.4646 7.04226C54.1835 7.04105 51.9963 6.29855 50.3839 4.97796C48.7714 3.65737 47.8656 1.86678 47.8656 -0.000213623Z" fill="#1C1C1C"/>
<path d="M52.0706 71.9764C50.2701 72.5092 48.6351 73.3598 47.2813 74.4678C45.9275 75.5759 44.8882 76.9141 44.2372 78.3877L12.2269 78.3877C11.5759 76.9141 10.5366 75.5759 9.18282 74.4678C7.82905 73.3598 6.19397 72.5092 4.39355 71.9764L4.39355 10.0108C6.19434 9.47717 7.82961 8.62577 9.18337 7.51698C10.5371 6.4082 11.5762 5.06918 12.2269 3.59492L44.2372 3.59492C44.8879 5.06918 45.927 6.4082 47.2807 7.51698C48.6345 8.62577 50.2698 9.47717 52.0706 10.0108L52.0706 71.9764Z" fill="white"/>
<path d="M50.9729 71.359C47.6097 72.5328 44.9359 74.7309 43.5168 77.4888L13.0044 77.4888C11.5786 74.7267 8.89416 72.5279 5.52051 71.359L5.52051 10.6239C8.89516 9.45615 11.5801 7.25698 13.0044 4.49408L43.5168 4.49408C44.941 7.25698 47.626 9.45615 51.0006 10.6239L50.9729 71.359Z" fill="#FDDA23"/>
<path opacity="0.5" d="M29.5909 68.1084H30.1289L30.1289 60.939H29.5909L29.5909 68.1084Z" fill="#1C1C1C"/>
<path opacity="0.5" d="M26.3627 68.1084H29.0527L29.0527 60.939H26.3627L26.3627 68.1084Z" fill="#1C1C1C"/>
<path opacity="0.5" d="M30.6662 68.1084H32.2803V60.939H30.6662L30.6662 68.1084Z" fill="#1C1C1C"/>
<path opacity="0.5" d="M18.8311 68.1084H19.3691L19.3691 61.3871H18.8311L18.8311 68.1084Z" fill="#1C1C1C"/>
<path opacity="0.5" d="M20.4436 68.1084H22.5957L22.5957 61.3871H20.4436L20.4436 68.1084Z" fill="#1C1C1C"/>
<path opacity="0.5" d="M23.1348 68.1084H23.6729L23.6729 60.939H23.1348L23.1348 68.1084Z" fill="#1C1C1C"/>
<path opacity="0.5" d="M24.7482 68.1084H25.8242L25.8242 60.939H24.7482L24.7482 68.1084Z" fill="#1C1C1C"/>
<path opacity="0.5" d="M42.505 67.6602H43.043V60.9389H42.505V67.6602Z" fill="#1C1C1C"/>
<path opacity="0.5" d="M43.5774 67.6602H45.7295V60.9389H43.5774V67.6602Z" fill="#1C1C1C"/>
<path opacity="0.5" d="M37.1233 68.1084H38.7373V60.939H37.1233V68.1084Z" fill="#1C1C1C"/>
<path opacity="0.5" d="M39.2747 68.1084H41.4268V60.939H39.2747V68.1084Z" fill="#1C1C1C"/>
<path opacity="0.5" d="M36.0479 68.1084H36.5859V60.939H36.0479V68.1084Z" fill="#1C1C1C"/>
<path opacity="0.5" d="M32.8197 68.1084H35.5098V60.939H32.8197V68.1084Z" fill="#1C1C1C"/>
<path opacity="0.5" d="M15.0655 68.1084H15.6035L15.6035 61.3871H15.0655L15.0655 68.1084Z" fill="#1C1C1C"/>
<path opacity="0.5" d="M16.1419 68.1084H18.2939L18.2939 61.3871H16.1419L16.1419 68.1084Z" fill="#1C1C1C"/>
<path opacity="0.5" d="M10.2228 68.1084H11.2988L11.2988 61.3871H10.2228L10.2228 68.1084Z" fill="#1C1C1C"/>
<path opacity="0.5" d="M11.8382 68.1084H14.5283L14.5283 61.3871H11.8382L11.8382 68.1084Z" fill="#1C1C1C"/>
<path d="M97.2432 49.2974C95.9499 49.2974 94.869 48.9717 94.0005 48.3203C93.132 47.6595 92.5231 46.7438 92.1738 45.5732C91.8245 44.3932 91.7773 43.0197 92.0322 41.4526C92.2965 39.8856 92.7969 38.5168 93.5332 37.3462C94.279 36.1662 95.1947 35.2505 96.2803 34.5991C97.3659 33.9478 98.5506 33.6221 99.8345 33.6221C100.542 33.6221 101.17 33.7259 101.718 33.9336C102.275 34.1318 102.747 34.4198 103.134 34.7974C103.53 35.1655 103.832 35.6045 104.04 36.1143H104.097L104.465 33.9053H107.424L104.918 49H101.973L102.355 46.7061H102.284C101.888 47.2441 101.43 47.7067 100.911 48.0938C100.401 48.4808 99.8392 48.7782 99.2256 48.9858C98.612 49.1935 97.9512 49.2974 97.2432 49.2974ZM98.291 46.7061C99.1501 46.7061 99.9289 46.4889 100.627 46.0547C101.326 45.6204 101.911 45.0068 102.383 44.2139C102.855 43.4209 103.176 42.5005 103.346 41.4526C103.516 40.3859 103.497 39.4608 103.29 38.6772C103.082 37.8937 102.7 37.2848 102.143 36.8506C101.595 36.4163 100.892 36.1992 100.033 36.1992C99.2209 36.1992 98.4751 36.4069 97.7954 36.8223C97.1157 37.2282 96.5399 37.8229 96.0679 38.6064C95.6053 39.39 95.2796 40.3387 95.0908 41.4526C94.9115 42.5571 94.9256 43.5011 95.1333 44.2847C95.341 45.0682 95.7139 45.6676 96.252 46.083C96.7995 46.4984 97.4792 46.7061 98.291 46.7061ZM114.122 55.1455C112.885 55.1455 111.823 54.9661 110.936 54.6074C110.049 54.2487 109.364 53.7342 108.883 53.064C108.411 52.4032 108.17 51.6102 108.161 50.6851L111.049 50.5151C111.106 50.9683 111.257 51.3553 111.502 51.6763C111.757 51.9972 112.107 52.2474 112.55 52.4268C112.994 52.6061 113.532 52.6958 114.165 52.6958C115.43 52.6958 116.482 52.356 117.322 51.6763C118.172 51.006 118.691 50.0667 118.88 48.8584L119.234 46.5645H119.177C118.771 47.1025 118.323 47.5651 117.832 47.9521C117.351 48.3298 116.822 48.6177 116.246 48.8159C115.67 49.0142 115.038 49.1133 114.349 49.1133C113.216 49.1133 112.234 48.8678 111.403 48.377C110.582 47.8766 109.945 47.1733 109.492 46.2671C109.048 45.3514 108.826 44.2799 108.826 43.0527C108.826 41.8822 109.006 40.7399 109.364 39.626C109.723 38.5026 110.237 37.4925 110.908 36.5957C111.578 35.6895 112.39 34.9673 113.343 34.4292C114.297 33.8911 115.368 33.6221 116.558 33.6221C117.105 33.6221 117.61 33.6834 118.073 33.8062C118.535 33.9194 118.951 34.0941 119.319 34.3301C119.687 34.5566 120.008 34.8351 120.282 35.1655C120.556 35.4865 120.773 35.8547 120.933 36.27L120.99 36.2559L121.372 33.9053H124.332L121.839 48.9858C121.603 50.4679 121.108 51.6574 120.353 52.5542C119.607 53.4604 118.691 54.1165 117.605 54.5225C116.529 54.9378 115.368 55.1455 114.122 55.1455ZM115.042 46.5503C115.892 46.5503 116.647 46.3615 117.308 45.9839C117.969 45.5968 118.531 45.0824 118.993 44.4404C119.456 43.7985 119.805 43.0811 120.041 42.2881C120.286 41.4951 120.409 40.6927 120.409 39.8809C120.409 38.7386 120.121 37.8371 119.545 37.1763C118.979 36.5155 118.167 36.1851 117.11 36.1851C116.27 36.1851 115.524 36.3833 114.873 36.7798C114.221 37.1668 113.669 37.686 113.216 38.3374C112.772 38.9888 112.432 39.7204 112.196 40.5322C111.97 41.3346 111.856 42.1512 111.856 42.9819C111.856 44.1431 112.135 45.0304 112.692 45.644C113.258 46.2482 114.042 46.5503 115.042 46.5503ZM131.921 49.3398C130.647 49.3398 129.547 49.0755 128.622 48.5469C127.697 48.0182 126.984 47.2819 126.484 46.3379C125.993 45.3844 125.748 44.2752 125.748 43.0103C125.748 41.7925 125.946 40.6172 126.342 39.4844C126.739 38.3516 127.305 37.3462 128.042 36.4683C128.787 35.5809 129.679 34.8776 130.718 34.3584C131.756 33.8392 132.913 33.5796 134.187 33.5796C135.471 33.5796 136.575 33.8486 137.5 34.3867C138.426 34.9154 139.134 35.6564 139.625 36.6099C140.115 37.5633 140.361 38.6772 140.361 39.9517C140.361 41.1694 140.163 42.34 139.766 43.4634C139.379 44.5868 138.813 45.5921 138.067 46.4795C137.331 47.3574 136.443 48.056 135.405 48.5752C134.366 49.085 133.205 49.3398 131.921 49.3398ZM132.049 46.7485C132.917 46.7485 133.682 46.5456 134.343 46.1396C135.004 45.7337 135.556 45.2004 136 44.5396C136.453 43.8693 136.792 43.133 137.019 42.3306C137.246 41.5187 137.359 40.7116 137.359 39.9092C137.359 39.1351 137.231 38.4696 136.977 37.9126C136.722 37.3556 136.349 36.9261 135.858 36.624C135.376 36.3219 134.777 36.1709 134.06 36.1709C133.21 36.1709 132.455 36.3739 131.794 36.7798C131.143 37.1763 130.59 37.7096 130.137 38.3799C129.684 39.0407 129.34 39.777 129.104 40.5889C128.868 41.4007 128.75 42.222 128.75 43.0527C128.75 44.195 129.033 45.0965 129.599 45.7573C130.166 46.4181 130.982 46.7485 132.049 46.7485ZM141.777 49L144.269 33.9053H147.172L146.761 36.3408H146.832C147.247 35.5195 147.8 34.8776 148.489 34.415C149.178 33.943 149.994 33.707 150.938 33.707C151.165 33.707 151.377 33.7165 151.576 33.7354C151.774 33.7448 151.934 33.759 152.057 33.7778L151.59 36.5957C151.477 36.5768 151.274 36.5485 150.981 36.5107C150.688 36.473 150.372 36.4541 150.032 36.4541C149.447 36.4541 148.89 36.5863 148.361 36.8506C147.842 37.1149 147.398 37.5114 147.03 38.04C146.662 38.5687 146.412 39.2342 146.28 40.0366L144.793 49H141.777ZM157.282 49.2974C155.989 49.2974 154.908 48.9717 154.04 48.3203C153.171 47.6595 152.562 46.7438 152.213 45.5732C151.864 44.3932 151.816 43.0197 152.071 41.4526C152.336 39.8856 152.836 38.5168 153.572 37.3462C154.318 36.1662 155.234 35.2505 156.319 34.5991C157.405 33.9478 158.59 33.6221 159.874 33.6221C160.582 33.6221 161.209 33.7259 161.757 33.9336C162.314 34.1318 162.786 34.4198 163.173 34.7974C163.569 35.1655 163.871 35.6045 164.079 36.1143H164.136L164.504 33.9053H167.463L164.957 49H162.012L162.394 46.7061H162.323C161.927 47.2441 161.469 47.7067 160.95 48.0938C160.44 48.4808 159.878 48.7782 159.265 48.9858C158.651 49.1935 157.99 49.2974 157.282 49.2974ZM158.33 46.7061C159.189 46.7061 159.968 46.4889 160.667 46.0547C161.365 45.6204 161.95 45.0068 162.422 44.2139C162.894 43.4209 163.215 42.5005 163.385 41.4526C163.555 40.3859 163.536 39.4608 163.329 38.6772C163.121 37.8937 162.739 37.2848 162.182 36.8506C161.634 36.4163 160.931 36.1992 160.072 36.1992C159.26 36.1992 158.514 36.4069 157.834 36.8223C157.155 37.2282 156.579 37.8229 156.107 38.6064C155.644 39.39 155.319 40.3387 155.13 41.4526C154.951 42.5571 154.965 43.5011 155.172 44.2847C155.38 45.0682 155.753 45.6676 156.291 46.083C156.839 46.4984 157.518 46.7061 158.33 46.7061Z" fill="#1C1C1C"/>
</svg>
