<svg width="92" height="38" viewBox="0 0 92 38" fill="none" xmlns="http://www.w3.org/2000/svg">
<path d="M29.2242 6.02476C29.2242 6.29766 29.0918 6.55937 28.856 6.75234C28.6202 6.9453 28.3005 7.0537 27.967 7.0537V9.32411C28.1367 9.31782 28.3062 9.33975 28.4653 9.38857C28.6244 9.43739 28.7697 9.51209 28.8925 9.60816C29.0153 9.70423 29.113 9.81967 29.1798 9.94751C29.2466 10.0754 29.281 10.213 29.281 10.352C29.281 10.491 29.2466 10.6286 29.1798 10.7565C29.113 10.8843 29.0153 10.9998 28.8925 11.0958C28.7697 11.1919 28.6244 11.2666 28.4653 11.3154C28.3062 11.3642 28.1367 11.3862 27.967 11.3799V13.6482C28.3005 13.6482 28.6202 13.7566 28.856 13.9495C29.0918 14.1425 29.2242 14.4042 29.2242 14.6771C29.2242 14.95 29.0918 15.2117 28.856 15.4047C28.6202 15.5977 28.3005 15.7061 27.967 15.7061V17.9744C28.1321 17.9744 28.2956 18.001 28.4481 18.0527C28.6007 18.1044 28.7393 18.1802 28.856 18.2757C28.9727 18.3713 29.0653 18.4847 29.1285 18.6095C29.1917 18.7344 29.2242 18.8682 29.2242 19.0033C29.2242 19.1384 29.1917 19.2722 29.1285 19.3971C29.0653 19.5219 28.9727 19.6353 28.856 19.7309C28.7393 19.8264 28.6007 19.9022 28.4481 19.9539C28.2956 20.0056 28.1321 20.0322 27.967 20.0322V22.3005C28.3005 22.3005 28.6202 22.4089 28.856 22.6019C29.0918 22.7949 29.2242 23.0566 29.2242 23.3295C29.2242 23.6024 29.0918 23.8641 28.856 24.057C28.6202 24.25 28.3005 24.3584 27.967 24.3584V26.6267C28.3005 26.6267 28.6202 26.7351 28.856 26.9281C29.0918 27.121 29.2242 27.3828 29.2242 27.6556C29.2242 27.9285 29.0918 28.1903 28.856 28.3832C28.6202 28.5762 28.3005 28.6846 27.967 28.6846V30.9529C28.3005 30.9529 28.6202 31.0613 28.856 31.2543C29.0918 31.4472 29.2242 31.7089 29.2242 31.9818C29.2242 32.2547 29.0918 32.5164 28.856 32.7094C28.6202 32.9024 28.3005 33.0108 27.967 33.0108V34.7383C29.0239 34.7383 30.0375 35.0819 30.7848 35.6936C31.5321 36.3052 31.9519 37.1348 31.9519 37.9998L88.015 37.9998C88.015 37.1348 88.4349 36.3052 89.1822 35.6936C89.9295 35.0819 90.943 34.7383 91.9999 34.7383V33.0108C91.6665 33.0108 91.3467 32.9024 91.111 32.7094C90.8752 32.5164 90.7427 32.2547 90.7427 31.9818C90.7427 31.7089 90.8752 31.4472 91.111 31.2543C91.3467 31.0613 91.6665 30.9529 91.9999 30.9529V28.6846C91.6665 28.6846 91.3467 28.5762 91.111 28.3832C90.8752 28.1903 90.7427 27.9285 90.7427 27.6556C90.7427 27.3828 90.8752 27.121 91.111 26.9281C91.3467 26.7351 91.6665 26.6267 91.9999 26.6267V24.3584C91.6665 24.3584 91.3467 24.25 91.111 24.057C90.8752 23.8641 90.7427 23.6024 90.7427 23.3295C90.7427 23.0566 90.8752 22.7949 91.111 22.6019C91.3467 22.4089 91.6665 22.3005 91.9999 22.3005V20.0322C91.6665 20.0322 91.3467 19.9238 91.111 19.7309C90.8752 19.5379 90.7427 19.2762 90.7427 19.0033C90.7427 18.7304 90.8752 18.4687 91.111 18.2757C91.3467 18.0828 91.6665 17.9744 91.9999 17.9744V15.7061C91.6665 15.7061 91.3467 15.5977 91.111 15.4047C90.8752 15.2117 90.7427 14.95 90.7427 14.6771C90.7427 14.4042 90.8752 14.1425 91.111 13.9495C91.3467 13.7566 91.6665 13.6482 91.9999 13.6482L91.9999 11.3799C91.6767 11.3679 91.3715 11.2544 91.1479 11.0629C90.9243 10.8715 90.7996 10.6168 90.7996 10.352C90.7996 10.0872 90.9243 9.83252 91.1479 9.64106C91.3715 9.44961 91.6767 9.33608 91.9999 9.32411V7.0537C91.6767 7.04173 91.3715 6.92821 91.1479 6.73675C90.9243 6.5453 90.7996 6.29066 90.7996 6.02582C90.7996 5.76098 90.9243 5.50634 91.1479 5.31488C91.3715 5.12343 91.6767 5.0099 91.9999 4.99793V3.2704C90.9428 3.26985 89.9293 2.92576 89.182 2.31378C88.4348 1.70181 88.015 0.872024 88.015 0.00683551L31.9519 0.00683551C31.9519 0.872024 31.5322 1.70181 30.7849 2.31378C30.0377 2.92576 29.0241 3.26985 27.967 3.2704V5.00003C28.1318 4.99976 28.295 5.02604 28.4473 5.07739C28.5997 5.12874 28.7382 5.20414 28.8549 5.2993C28.9717 5.39445 29.0644 5.5075 29.1277 5.63197C29.1911 5.75645 29.2239 5.88992 29.2242 6.02476Z" fill="black"/>
<path d="M89.964 33.3624C89.1297 33.6093 88.372 34.0035 87.7446 34.517C87.1173 35.0305 86.6357 35.6506 86.3339 36.3335L33.6309 36.3335C33.3288 35.6505 32.8467 35.0302 32.219 34.5168C31.5912 34.0033 30.833 33.6092 29.9983 33.3624L29.9983 4.64678C30.8331 4.39949 31.5912 4.00497 32.219 3.49116C32.8468 2.97736 33.3288 2.35684 33.6309 1.67358L86.3339 1.67358C86.6355 2.35677 87.117 2.97729 87.7444 3.49111C88.3717 4.00494 89.1295 4.39949 89.964 4.64678V33.3624Z" fill="black"/>
<path d="M89.455 33.0754C87.8911 33.6165 86.6469 34.6357 85.9869 35.916L33.9831 35.916C33.3223 34.6354 32.0771 33.6163 30.5125 33.0754L30.5125 4.92999C32.0776 4.38967 33.323 3.37036 33.9831 2.08935L85.9869 2.08935C86.6469 3.36972 87.8911 4.38884 89.455 4.92999V33.0754Z" fill="white"/>
<path d="M22.1815 -4.30424e-07L3.98486 -4.30424e-07C3.98486 0.865188 3.56511 1.69497 2.81788 2.30695C2.07065 2.91892 1.05709 3.26301 0 3.26357L0 4.9932C0.323249 5.00517 0.628409 5.1187 0.851982 5.31015C1.07556 5.50161 1.20032 5.75625 1.20032 6.02108C1.20032 6.28592 1.07556 6.54056 0.851982 6.73202C0.628409 6.92347 0.323249 7.037 0 7.04897L0 9.31727C0.323249 9.32924 0.628409 9.44277 0.851982 9.63423C1.07556 9.82568 1.20032 10.0803 1.20032 10.3452C1.20032 10.61 1.07556 10.8646 0.851982 11.0561C0.628409 11.2475 0.323249 11.3611 0 11.373L0 13.6413C0.333419 13.6413 0.653184 13.7497 0.888947 13.9427C1.12471 14.1357 1.25716 14.3974 1.25716 14.6703C1.25716 14.9432 1.12471 15.2049 0.888947 15.3979C0.653184 15.5908 0.333419 15.6992 0 15.6992L0 17.9675C0.333419 17.9675 0.653184 18.0759 0.888947 18.2689C1.12471 18.4619 1.25716 18.7236 1.25716 18.9965C1.25716 19.2694 1.12471 19.5311 0.888947 19.724C0.653184 19.917 0.333419 20.0254 0 20.0254L0 22.2937C0.333419 22.2937 0.653184 22.4021 0.888947 22.5951C1.12471 22.788 1.25716 23.0497 1.25716 23.3226C1.25716 23.5955 1.12471 23.8572 0.888947 24.0502C0.653184 24.2432 0.333419 24.3516 0 24.3516L0 26.6199C0.333419 26.6199 0.653184 26.7283 0.888947 26.9212C1.12471 27.1142 1.25716 27.3759 1.25716 27.6488C1.25716 27.9217 1.12471 28.1834 0.888947 28.3764C0.653184 28.5693 0.333419 28.6778 0 28.6778L0 30.946C0.333419 30.946 0.653184 31.0545 0.888947 31.2474C1.12471 31.4404 1.25716 31.7021 1.25716 31.975C1.25716 32.2479 1.12471 32.5096 0.888947 32.7026C0.653184 32.8955 0.333419 33.0039 0 33.0039L0 34.7315C1.05685 34.7315 2.07042 35.0751 2.81772 35.6867C3.56503 36.2984 3.98486 37.1279 3.98486 37.9929L22.1815 37.9929C22.1815 37.1279 22.6014 36.2984 23.3487 35.6867C24.096 35.0751 25.1095 34.7315 26.1664 34.7315V33.0039C25.833 33.0039 25.5132 32.8955 25.2775 32.7026C25.0417 32.5096 24.9092 32.2479 24.9092 31.975C24.9092 31.7021 25.0417 31.4404 25.2775 31.2474C25.5132 31.0545 25.833 30.946 26.1664 30.946L26.1664 28.6778C25.833 28.6778 25.5132 28.5693 25.2775 28.3764C25.0417 28.1834 24.9092 27.9217 24.9092 27.6488C24.9092 27.3759 25.0417 27.1142 25.2775 26.9212C25.5132 26.7283 25.833 26.6199 26.1664 26.6199V24.3516C25.833 24.3516 25.5132 24.2432 25.2775 24.0502C25.0417 23.8572 24.9092 23.5955 24.9092 23.3226C24.9092 23.0497 25.0417 22.788 25.2775 22.5951C25.5132 22.4021 25.833 22.2937 26.1664 22.2937V20.0254C26.0013 20.0254 25.8378 19.9988 25.6853 19.9471C25.5328 19.8954 25.3942 19.8196 25.2775 19.724C25.1607 19.6285 25.0681 19.5151 25.0049 19.3902C24.9418 19.2654 24.9092 19.1316 24.9092 18.9965C24.9092 18.8613 24.9418 18.7275 25.0049 18.6027C25.0681 18.4779 25.1607 18.3644 25.2775 18.2689C25.3942 18.1733 25.5328 18.0976 25.6853 18.0458C25.8378 17.9941 26.0013 17.9675 26.1664 17.9675L26.1664 15.6992C25.833 15.6992 25.5132 15.5908 25.2775 15.3979C25.0417 15.2049 24.9092 14.9432 24.9092 14.6703C24.9092 14.3974 25.0417 14.1357 25.2775 13.9427C25.5132 13.7497 25.833 13.6413 26.1664 13.6413V11.373C25.9967 11.3793 25.8272 11.3574 25.6681 11.3086C25.5091 11.2598 25.3637 11.1851 25.2409 11.089C25.1181 10.9929 25.0204 10.8775 24.9536 10.7496C24.8868 10.6218 24.8524 10.4842 24.8524 10.3452C24.8524 10.2061 24.8868 10.0685 24.9536 9.94068C25.0204 9.81283 25.1181 9.69739 25.2409 9.60132C25.3637 9.50526 25.5091 9.43056 25.6681 9.38174C25.8272 9.33291 25.9967 9.31098 26.1664 9.31727V7.04687C25.9967 7.05315 25.8272 7.03122 25.6681 6.9824C25.5091 6.93358 25.3637 6.85888 25.2409 6.76282C25.1181 6.66675 25.0204 6.55131 24.9536 6.42346C24.8868 6.29562 24.8524 6.15802 24.8524 6.01898C24.8524 5.87994 24.8868 5.74234 24.9536 5.6145C25.0204 5.48665 25.1181 5.37121 25.2409 5.27515C25.3637 5.17908 25.5091 5.10438 25.6681 5.05556C25.8272 5.00674 25.9967 4.98481 26.1664 4.99109V3.26357C25.1093 3.26301 24.0958 2.91892 23.3485 2.30695C22.6013 1.69497 22.1815 0.865188 22.1815 -4.30424e-07Z" fill="black"/>
<path d="M24.1303 33.3551C23.2959 33.602 22.5382 33.9962 21.9109 34.5097C21.2835 35.0231 20.8019 35.6433 20.5002 36.3262H5.66621C5.3645 35.6433 4.88289 35.0231 4.25554 34.5097C3.62819 33.9962 2.87047 33.602 2.03613 33.3551L2.03613 4.63945C2.87064 4.39216 3.62845 3.99761 4.25579 3.48379C4.88314 2.96996 5.36467 2.34945 5.66621 1.66626H20.5002C20.8017 2.34945 21.2832 2.96996 21.9106 3.48379C22.5379 3.99761 23.2958 4.39216 24.1303 4.63945L24.1303 33.3551Z" fill="white"/>
<path d="M23.6216 33.069C22.063 33.613 20.824 34.6316 20.1663 35.9097H6.02646C5.36576 34.6297 4.12174 33.6107 2.55835 33.069L2.55835 4.92364C4.12221 4.38249 5.36645 3.36337 6.02646 2.08301H20.1663C20.8263 3.36337 22.0706 4.38249 23.6344 4.92364L23.6216 33.069Z" fill="#FDDA23"/>
<path opacity="0.5" d="M13.7126 31.5627H13.9619L13.9619 28.2404H13.7126L13.7126 31.5627Z" fill="black"/>
<path opacity="0.5" d="M12.2165 31.5627H13.4631L13.4631 28.2404H12.2165L12.2165 31.5627Z" fill="black"/>
<path opacity="0.5" d="M14.211 31.5627H14.959L14.959 28.2404H14.211L14.211 31.5627Z" fill="black"/>
<path opacity="0.5" d="M8.72651 31.5627H8.97583L8.97583 28.448H8.72651L8.72651 31.5627Z" fill="black"/>
<path opacity="0.5" d="M9.47366 31.5627H10.4709L10.4709 28.448H9.47366L9.47366 31.5627Z" fill="black"/>
<path opacity="0.5" d="M10.7209 31.5627H10.9702L10.9702 28.2404H10.7209L10.7209 31.5627Z" fill="black"/>
<path opacity="0.5" d="M11.4686 31.5627H11.9673L11.9673 28.2404H11.4686L11.4686 31.5627Z" fill="black"/>
<path opacity="0.5" d="M19.6972 31.3552H19.9465V28.2405H19.6972V31.3552Z" fill="black"/>
<path opacity="0.5" d="M20.1944 31.3552H21.1917V28.2405H20.1944V31.3552Z" fill="black"/>
<path opacity="0.5" d="M17.2032 31.5627H17.9512V28.2404H17.2032V31.5627Z" fill="black"/>
<path opacity="0.5" d="M18.2005 31.5627H19.1978V28.2404H18.2005V31.5627Z" fill="black"/>
<path opacity="0.5" d="M16.7048 31.5627H16.9541V28.2404H16.7048V31.5627Z" fill="black"/>
<path opacity="0.5" d="M15.2087 31.5627H16.4553V28.2404H15.2087L15.2087 31.5627Z" fill="black"/>
<path opacity="0.5" d="M6.98163 31.5627H7.23096L7.23096 28.448H6.98163L6.98163 31.5627Z" fill="black"/>
<path opacity="0.5" d="M7.48 31.5627H8.47729L8.47729 28.448H7.48L7.48 31.5627Z" fill="black"/>
<path opacity="0.5" d="M4.73719 31.5627H5.23584L5.23584 28.448H4.73719L4.73719 31.5627Z" fill="black"/>
<path opacity="0.5" d="M5.48581 31.5627H6.73242L6.73242 28.448H5.48581L5.48581 31.5627Z" fill="black"/>
<path d="M42.0044 24.1665C41.3182 24.1665 40.738 23.9899 40.2637 23.6367C39.7894 23.2835 39.4539 22.7815 39.2571 22.1306C39.0653 21.4797 39.0452 20.7027 39.1965 19.7996C39.3479 18.8863 39.6305 18.1093 40.0442 17.4685C40.4579 16.8227 40.96 16.3282 41.5503 15.9851C42.1406 15.642 42.7764 15.4705 43.4575 15.4705C43.9621 15.4705 44.3607 15.5537 44.6533 15.7202C44.946 15.8867 45.1654 16.0835 45.3118 16.3105C45.4631 16.5376 45.5741 16.747 45.6448 16.9387H45.7432L45.9626 15.5764H47.6201L46.2275 24H44.6079L44.8198 22.6831H44.6912C44.5499 22.8849 44.3632 23.1019 44.1311 23.334C43.9041 23.561 43.6165 23.7578 43.2683 23.9243C42.9202 24.0858 42.4989 24.1665 42.0044 24.1665ZM42.6174 22.7512C43.0867 22.7512 43.5029 22.6276 43.8662 22.3804C44.2345 22.1281 44.5398 21.7799 44.782 21.3359C45.0292 20.8919 45.2008 20.3773 45.2966 19.792C45.3975 19.2067 45.3975 18.6971 45.2966 18.2632C45.2008 17.8242 45.009 17.4862 44.7214 17.249C44.4338 17.0068 44.0554 16.8857 43.5862 16.8857C43.1018 16.8857 42.6729 17.0144 42.2996 17.2717C41.9262 17.524 41.6209 17.8696 41.3838 18.3086C41.1466 18.7425 40.9801 19.237 40.8843 19.792C40.7935 20.3521 40.796 20.8566 40.8918 21.3057C40.9877 21.7547 41.1794 22.1079 41.467 22.3652C41.7546 22.6226 42.1381 22.7512 42.6174 22.7512ZM51.5178 27.3376C50.8417 27.3376 50.2716 27.2493 49.8074 27.0728C49.3432 26.8962 48.9774 26.659 48.71 26.3613C48.4425 26.0687 48.2634 25.7483 48.1726 25.4001L49.6257 24.8855C49.6964 25.047 49.7973 25.2135 49.9285 25.385C50.0597 25.5566 50.2539 25.7004 50.5112 25.8164C50.7686 25.9375 51.1117 25.998 51.5405 25.998C52.2116 25.998 52.7817 25.8341 53.251 25.5061C53.7253 25.1781 54.0154 24.6912 54.1213 24.0454L54.3938 22.4863L54.25 22.509C54.1087 22.7109 53.9296 22.9177 53.7126 23.1296C53.5007 23.3416 53.2308 23.5207 52.9028 23.667C52.5799 23.8133 52.1763 23.8865 51.6919 23.8865C51.1016 23.8865 50.5793 23.7629 50.1252 23.5156C49.6762 23.2684 49.323 22.9076 49.0657 22.4333C48.8134 21.954 48.6873 21.3687 48.6873 20.6775C48.6873 20.0367 48.7831 19.4085 48.9749 18.793C49.1666 18.1724 49.4441 17.6123 49.8074 17.1128C50.1757 16.6133 50.6197 16.2147 51.1394 15.917C51.6641 15.6193 52.2545 15.4705 52.9104 15.4705C53.304 15.4705 53.6344 15.5234 53.9019 15.6294C54.1693 15.7303 54.3888 15.8615 54.5603 16.0229C54.7319 16.1794 54.8656 16.3459 54.9614 16.5225C55.0623 16.694 55.1405 16.8479 55.196 16.9841L55.3247 16.9614L55.5593 15.5764H57.179L55.7561 24.1589C55.63 24.9006 55.3651 25.5061 54.9614 25.9753C54.5628 26.4446 54.0658 26.7877 53.4705 27.0046C52.8751 27.2266 52.2242 27.3376 51.5178 27.3376ZM52.1006 22.509C52.585 22.509 53.0037 22.4006 53.3569 22.1836C53.7101 21.9666 54.0028 21.6816 54.2349 21.3284C54.472 20.9701 54.6486 20.5766 54.7646 20.1477C54.8807 19.7138 54.9387 19.2799 54.9387 18.8459C54.9387 18.2455 54.7974 17.7687 54.5149 17.4155C54.2323 17.0573 53.8035 16.8782 53.2283 16.8782C52.7742 16.8782 52.368 16.9892 52.0098 17.2112C51.6515 17.4281 51.3488 17.7183 51.1016 18.0815C50.8594 18.4398 50.6752 18.8384 50.5491 19.2773C50.4229 19.7163 50.3599 20.1553 50.3599 20.5942C50.3599 21.1846 50.5037 21.6513 50.7913 21.9944C51.0839 22.3375 51.5203 22.509 52.1006 22.509ZM61.6064 24.1741C60.9001 24.1741 60.2946 24.0328 59.79 23.7502C59.2905 23.4626 58.9045 23.059 58.6321 22.5393C58.3647 22.0146 58.231 21.4015 58.231 20.7002C58.231 20.0291 58.3369 19.3808 58.5488 18.7551C58.7607 18.1295 59.066 17.5694 59.4646 17.075C59.8682 16.5805 60.3551 16.1895 60.9253 15.9019C61.4954 15.6092 62.1388 15.4629 62.8552 15.4629C63.5616 15.4629 64.1671 15.6067 64.6716 15.8943C65.1812 16.1768 65.5697 16.5805 65.8372 17.1052C66.1096 17.6249 66.2458 18.238 66.2458 18.9443C66.2458 19.6255 66.1399 20.2789 65.928 20.9045C65.7161 21.5302 65.4083 22.0903 65.0046 22.5847C64.601 23.0741 64.1116 23.4626 63.5364 23.7502C62.9662 24.0328 62.3229 24.1741 61.6064 24.1741ZM61.6594 22.7739C62.1438 22.7739 62.5676 22.6579 62.9309 22.4258C63.2992 22.1886 63.6045 21.8809 63.8467 21.5024C64.0889 21.119 64.2705 20.7027 64.3916 20.2537C64.5177 19.8046 64.5808 19.3682 64.5808 18.9443C64.5808 18.5457 64.5177 18.19 64.3916 17.8772C64.2655 17.5644 64.0712 17.3197 63.8088 17.1431C63.5465 16.9614 63.2109 16.8706 62.8022 16.8706C62.3229 16.8706 61.9016 16.9892 61.5383 17.2263C61.175 17.4584 60.8698 17.7662 60.6226 18.1497C60.3804 18.5281 60.1962 18.9418 60.0701 19.3909C59.949 19.8399 59.8884 20.2814 59.8884 20.7153C59.8884 21.3057 60.0297 21.7976 60.3123 22.1912C60.5999 22.5797 61.0489 22.7739 61.6594 22.7739ZM67.3054 24L68.698 15.5764H70.3025L70.083 16.9312H70.1663C70.3933 16.472 70.7213 16.1138 71.1501 15.8564C71.579 15.5941 72.0407 15.4629 72.5352 15.4629C72.6411 15.4629 72.7597 15.4679 72.8909 15.478C73.0271 15.4831 73.1356 15.4906 73.2163 15.5007L72.959 17.0825C72.8833 17.0623 72.7622 17.0422 72.5957 17.022C72.4342 17.0018 72.2703 16.9917 72.1038 16.9917C71.7253 16.9917 71.3722 17.0724 71.0442 17.2339C70.7213 17.3953 70.4513 17.6199 70.2344 17.9075C70.0174 18.19 69.8761 18.5205 69.8105 18.8989L68.9629 24H67.3054ZM76.0771 24.1665C75.391 24.1665 74.8107 23.9899 74.3364 23.6367C73.8621 23.2835 73.5266 22.7815 73.3298 22.1306C73.1381 21.4797 73.1179 20.7027 73.2693 19.7996C73.4207 18.8863 73.7032 18.1093 74.1169 17.4685C74.5307 16.8227 75.0327 16.3282 75.623 15.9851C76.2134 15.642 76.8491 15.4705 77.5303 15.4705C78.0348 15.4705 78.4334 15.5537 78.7261 15.7202C79.0187 15.8867 79.2382 16.0835 79.3845 16.3105C79.5359 16.5376 79.6469 16.747 79.7175 16.9387H79.8159L80.0354 15.5764H81.6929L80.3003 24H78.6807L78.8926 22.6831H78.7639C78.6226 22.8849 78.436 23.1019 78.2039 23.334C77.9768 23.561 77.6892 23.7578 77.3411 23.9243C76.9929 24.0858 76.5716 24.1665 76.0771 24.1665ZM76.6902 22.7512C77.1594 22.7512 77.5757 22.6276 77.939 22.3804C78.3073 22.1281 78.6125 21.7799 78.8547 21.3359C79.102 20.8919 79.2735 20.3773 79.3694 19.792C79.4703 19.2067 79.4703 18.6971 79.3694 18.2632C79.2735 17.8242 79.0818 17.4862 78.7942 17.249C78.5066 17.0068 78.1282 16.8857 77.6589 16.8857C77.1746 16.8857 76.7457 17.0144 76.3723 17.2717C75.9989 17.524 75.6937 17.8696 75.4565 18.3086C75.2194 18.7425 75.0529 19.237 74.957 19.792C74.8662 20.3521 74.8687 20.8566 74.9646 21.3057C75.0605 21.7547 75.2522 22.1079 75.5398 22.3652C75.8274 22.6226 76.2109 22.7512 76.6902 22.7512Z" fill="black"/>
</svg>
